# xmcd CD database file
#
# Track frame offsets:
#	150
#	12314
#	29011
#	43614
#	62265
#	84609
#	106111
#	117668
#	137509
#	164043
#	187200
#
# Disc length: 2825 seconds
#
# Revision: 0
# Processed by: cddbd v1.5.2PL0 Copyright (c) Steve Scherf et al.
# Submitted via: CDex 1.70beta2
#
DISCID=970b070b
DTITLE=Cody - Songs
DYEAR=1900
DGENRE=Country
TTITLE0=Remember When
TTITLE1=Down In The Dark
TTITLE2=Ever Go
TTITLE3=I want You
TTITLE4=The Light
TTITLE5=A Crime
TTITLE6=Catch The Straw
TTITLE7=What You Saw, What You See
TTITLE8=Another Year
TTITLE9=What's Behind
TTITLE10=Your Window
EXTD=
EXTT0=
EXTT1=
EXTT2=
EXTT3=
EXTT4=
EXTT5=
EXTT6=
EXTT7=
EXTT8=
EXTT9=
EXTT10=
PLAYORDER=
